<?xml version="1.0" encoding="UTF-8" standalone="no"?>
<!-- Created with Inkscape (http://www.inkscape.org/) -->

<svg
   xmlns:dc="http://purl.org/dc/elements/1.1/"
   xmlns:cc="http://creativecommons.org/ns#"
   xmlns:rdf="http://www.w3.org/1999/02/22-rdf-syntax-ns#"
   xmlns:svg="http://www.w3.org/2000/svg"
   xmlns="http://www.w3.org/2000/svg"
   xmlns:sodipodi="http://sodipodi.sourceforge.net/DTD/sodipodi-0.dtd"
   xmlns:inkscape="http://www.inkscape.org/namespaces/inkscape"
   width="3000"
   height="1200"
   id="svg2"
   version="1.1"
   inkscape:version="0.48.4 r9939"
   sodipodi:docname="tatakasForest.svg"
   inkscape:export-filename="/home/psamtani/development/openFrameworks_0.8.1/apps/myApps/HandFighter/bin/data/tatakasForest.png"
   inkscape:export-xdpi="90"
   inkscape:export-ydpi="90">
  <defs
     id="defs4" />
  <sodipodi:namedview
     id="base"
     pagecolor="#ffffff"
     bordercolor="#666666"
     borderopacity="1.0"
     inkscape:pageopacity="0.0"
     inkscape:pageshadow="2"
     inkscape:zoom="0.49497475"
     inkscape:cx="1160.886"
     inkscape:cy="-105.15573"
     inkscape:document-units="px"
     inkscape:current-layer="layer1"
     showgrid="false"
     inkscape:window-width="1920"
     inkscape:window-height="1021"
     inkscape:window-x="0"
     inkscape:window-y="27"
     inkscape:window-maximized="1" />
  <metadata
     id="metadata7">
    <rdf:RDF>
      <cc:Work
         rdf:about="">
        <dc:format>image/svg+xml</dc:format>
        <dc:type
           rdf:resource="http://purl.org/dc/dcmitype/StillImage" />
        <dc:title></dc:title>
      </cc:Work>
    </rdf:RDF>
  </metadata>
  <g
     inkscape:label="Layer 1"
     inkscape:groupmode="layer"
     id="layer1"
     transform="translate(0,147.63785)">
    <rect
       style="fill:#800000"
       id="rect2985"
       width="3018.1096"
       height="95.731705"
       x="-2.8571429"
       y="959.48755" />
    <rect
       style="fill:#000000"
       id="rect3006"
       width="3027.4993"
       height="1133.829"
       x="-4.0406103"
       y="-170.36035" />
    <path
       sodipodi:type="star"
       style="fill:#ececec"
       id="path3010"
       sodipodi:sides="5"
       sodipodi:cx="290"
       sodipodi:cy="326.64789"
       sodipodi:r1="10.301575"
       sodipodi:r2="5.1507874"
       sodipodi:arg1="0.5880026"
       sodipodi:arg2="1.2163211"
       inkscape:flatsided="false"
       inkscape:rounded="0"
       inkscape:randomized="0"
       d="m 298.57143,332.36217 -6.7836,-0.88373 -4.57372,5.08717 -1.25577,-6.72467 -6.25154,-2.77785 6.00749,-3.27234 0.71005,-6.80398 4.96861,4.70226 6.69038,-1.42724 -2.93673,6.1785 z"
       inkscape:transform-center-x="0.86088784"
       inkscape:transform-center-y="0.12830542" />
    <path
       transform="translate(989.71401,30.601038)"
       sodipodi:type="star"
       style="fill:#ececec"
       id="path3010-6"
       sodipodi:sides="5"
       sodipodi:cx="290"
       sodipodi:cy="326.64789"
       sodipodi:r1="10.301575"
       sodipodi:r2="5.1507874"
       sodipodi:arg1="0.5880026"
       sodipodi:arg2="1.2163211"
       inkscape:flatsided="false"
       inkscape:rounded="0"
       inkscape:randomized="0"
       d="m 298.57143,332.36217 -6.7836,-0.88373 -4.57372,5.08717 -1.25577,-6.72467 -6.25154,-2.77785 6.00749,-3.27234 0.71005,-6.80398 4.96861,4.70226 6.69038,-1.42724 -2.93673,6.1785 z"
       inkscape:transform-center-x="0.86088784"
       inkscape:transform-center-y="0.12830542" />
    <path
       transform="translate(335.13516,222.53002)"
       sodipodi:type="star"
       style="fill:#ececec"
       id="path3010-8"
       sodipodi:sides="5"
       sodipodi:cx="290"
       sodipodi:cy="326.64789"
       sodipodi:r1="10.301575"
       sodipodi:r2="5.1507874"
       sodipodi:arg1="0.5880026"
       sodipodi:arg2="1.2163211"
       inkscape:flatsided="false"
       inkscape:rounded="0"
       inkscape:randomized="0"
       d="m 298.57143,332.36217 -6.7836,-0.88373 -4.57372,5.08717 -1.25577,-6.72467 -6.25154,-2.77785 6.00749,-3.27234 0.71005,-6.80398 4.96861,4.70226 6.69038,-1.42724 -2.93673,6.1785 z"
       inkscape:transform-center-x="0.86088784"
       inkscape:transform-center-y="0.12830542" />
    <path
       transform="translate(716.97282,95.250801)"
       sodipodi:type="star"
       style="fill:#ececec"
       id="path3010-2"
       sodipodi:sides="5"
       sodipodi:cx="290"
       sodipodi:cy="326.64789"
       sodipodi:r1="10.301575"
       sodipodi:r2="5.1507874"
       sodipodi:arg1="0.5880026"
       sodipodi:arg2="1.2163211"
       inkscape:flatsided="false"
       inkscape:rounded="0"
       inkscape:randomized="0"
       d="m 298.57143,332.36217 -6.7836,-0.88373 -4.57372,5.08717 -1.25577,-6.72467 -6.25154,-2.77785 6.00749,-3.27234 0.71005,-6.80398 4.96861,4.70226 6.69038,-1.42724 -2.93673,6.1785 z"
       inkscape:transform-center-x="0.86088784"
       inkscape:transform-center-y="0.12830542" />
    <path
       transform="translate(1484.6888,236.67216)"
       sodipodi:type="star"
       style="fill:#ececec"
       id="path3010-5"
       sodipodi:sides="5"
       sodipodi:cx="290"
       sodipodi:cy="326.64789"
       sodipodi:r1="10.301575"
       sodipodi:r2="5.1507874"
       sodipodi:arg1="0.5880026"
       sodipodi:arg2="1.2163211"
       inkscape:flatsided="false"
       inkscape:rounded="0"
       inkscape:randomized="0"
       d="m 298.57143,332.36217 -6.7836,-0.88373 -4.57372,5.08717 -1.25577,-6.72467 -6.25154,-2.77785 6.00749,-3.27234 0.71005,-6.80398 4.96861,4.70226 6.69038,-1.42724 -2.93673,6.1785 z"
       inkscape:transform-center-x="0.86088784"
       inkscape:transform-center-y="0.12830542" />
    <path
       transform="translate(1490.7497,254.8549)"
       sodipodi:type="star"
       style="fill:#ececec"
       id="path3010-7"
       sodipodi:sides="5"
       sodipodi:cx="290"
       sodipodi:cy="326.64789"
       sodipodi:r1="10.301575"
       sodipodi:r2="5.1507874"
       sodipodi:arg1="0.5880026"
       sodipodi:arg2="1.2163211"
       inkscape:flatsided="false"
       inkscape:rounded="0"
       inkscape:randomized="0"
       d="m 298.57143,332.36217 -6.7836,-0.88373 -4.57372,5.08717 -1.25577,-6.72467 -6.25154,-2.77785 6.00749,-3.27234 0.71005,-6.80398 4.96861,4.70226 6.69038,-1.42724 -2.93673,6.1785 z"
       inkscape:transform-center-x="0.86088784"
       inkscape:transform-center-y="0.12830542" />
    <path
       transform="translate(1634.1913,-19.90659)"
       sodipodi:type="star"
       style="fill:#ececec"
       id="path3010-51"
       sodipodi:sides="5"
       sodipodi:cx="290"
       sodipodi:cy="326.64789"
       sodipodi:r1="10.301575"
       sodipodi:r2="5.1507874"
       sodipodi:arg1="0.5880026"
       sodipodi:arg2="1.2163211"
       inkscape:flatsided="false"
       inkscape:rounded="0"
       inkscape:randomized="0"
       d="m 298.57143,332.36217 -6.7836,-0.88373 -4.57372,5.08717 -1.25577,-6.72467 -6.25154,-2.77785 6.00749,-3.27234 0.71005,-6.80398 4.96861,4.70226 6.69038,-1.42724 -2.93673,6.1785 z"
       inkscape:transform-center-x="0.86088784"
       inkscape:transform-center-y="0.12830542" />
    <path
       transform="translate(1167.5009,40.702564)"
       sodipodi:type="star"
       style="fill:#ececec"
       id="path3010-71"
       sodipodi:sides="5"
       sodipodi:cx="290"
       sodipodi:cy="326.64789"
       sodipodi:r1="10.301575"
       sodipodi:r2="5.1507874"
       sodipodi:arg1="0.5880026"
       sodipodi:arg2="1.2163211"
       inkscape:flatsided="false"
       inkscape:rounded="0"
       inkscape:randomized="0"
       d="m 298.57143,332.36217 -6.7836,-0.88373 -4.57372,5.08717 -1.25577,-6.72467 -6.25154,-2.77785 6.00749,-3.27234 0.71005,-6.80398 4.96861,4.70226 6.69038,-1.42724 -2.93673,6.1785 z"
       inkscape:transform-center-x="0.86088784"
       inkscape:transform-center-y="0.12830542" />
    <path
       transform="translate(702.83069,-110.82032)"
       sodipodi:type="star"
       style="fill:#ececec"
       id="path3010-0"
       sodipodi:sides="5"
       sodipodi:cx="290"
       sodipodi:cy="326.64789"
       sodipodi:r1="10.301575"
       sodipodi:r2="5.1507874"
       sodipodi:arg1="0.5880026"
       sodipodi:arg2="1.2163211"
       inkscape:flatsided="false"
       inkscape:rounded="0"
       inkscape:randomized="0"
       d="m 298.57143,332.36217 -6.7836,-0.88373 -4.57372,5.08717 -1.25577,-6.72467 -6.25154,-2.77785 6.00749,-3.27234 0.71005,-6.80398 4.96861,4.70226 6.69038,-1.42724 -2.93673,6.1785 z"
       inkscape:transform-center-x="0.86088784"
       inkscape:transform-center-y="0.12830542" />
    <path
       transform="translate(125.02343,44.743174)"
       sodipodi:type="star"
       style="fill:#ececec"
       id="path3010-4"
       sodipodi:sides="5"
       sodipodi:cx="290"
       sodipodi:cy="326.64789"
       sodipodi:r1="10.301575"
       sodipodi:r2="5.1507874"
       sodipodi:arg1="0.5880026"
       sodipodi:arg2="1.2163211"
       inkscape:flatsided="false"
       inkscape:rounded="0"
       inkscape:randomized="0"
       d="m 298.57143,332.36217 -6.7836,-0.88373 -4.57372,5.08717 -1.25577,-6.72467 -6.25154,-2.77785 6.00749,-3.27234 0.71005,-6.80398 4.96861,4.70226 6.69038,-1.42724 -2.93673,6.1785 z"
       inkscape:transform-center-x="0.86088784"
       inkscape:transform-center-y="0.12830542" />
    <path
       transform="translate(367.46004,111.41324)"
       sodipodi:type="star"
       style="fill:#ececec"
       id="path3010-00"
       sodipodi:sides="5"
       sodipodi:cx="290"
       sodipodi:cy="326.64789"
       sodipodi:r1="10.301575"
       sodipodi:r2="5.1507874"
       sodipodi:arg1="0.5880026"
       sodipodi:arg2="1.2163211"
       inkscape:flatsided="false"
       inkscape:rounded="0"
       inkscape:randomized="0"
       d="m 298.57143,332.36217 -6.7836,-0.88373 -4.57372,5.08717 -1.25577,-6.72467 -6.25154,-2.77785 6.00749,-3.27234 0.71005,-6.80398 4.96861,4.70226 6.69038,-1.42724 -2.93673,6.1785 z"
       inkscape:transform-center-x="0.86088784"
       inkscape:transform-center-y="0.12830542" />
    <path
       transform="translate(369.48035,-11.825369)"
       sodipodi:type="star"
       style="fill:#ececec"
       id="path3010-81"
       sodipodi:sides="5"
       sodipodi:cx="290"
       sodipodi:cy="326.64789"
       sodipodi:r1="10.301575"
       sodipodi:r2="5.1507874"
       sodipodi:arg1="0.5880026"
       sodipodi:arg2="1.2163211"
       inkscape:flatsided="false"
       inkscape:rounded="0"
       inkscape:randomized="0"
       d="m 298.57143,332.36217 -6.7836,-0.88373 -4.57372,5.08717 -1.25577,-6.72467 -6.25154,-2.77785 6.00749,-3.27234 0.71005,-6.80398 4.96861,4.70226 6.69038,-1.42724 -2.93673,6.1785 z"
       inkscape:transform-center-x="0.86088784"
       inkscape:transform-center-y="0.12830542" />
    <path
       transform="translate(-188.12386,-232.03862)"
       sodipodi:type="star"
       style="fill:#ececec"
       id="path3010-26"
       sodipodi:sides="5"
       sodipodi:cx="290"
       sodipodi:cy="326.64789"
       sodipodi:r1="10.301575"
       sodipodi:r2="5.1507874"
       sodipodi:arg1="0.5880026"
       sodipodi:arg2="1.2163211"
       inkscape:flatsided="false"
       inkscape:rounded="0"
       inkscape:randomized="0"
       d="m 298.57143,332.36217 -6.7836,-0.88373 -4.57372,5.08717 -1.25577,-6.72467 -6.25154,-2.77785 6.00749,-3.27234 0.71005,-6.80398 4.96861,4.70226 6.69038,-1.42724 -2.93673,6.1785 z"
       inkscape:transform-center-x="0.86088784"
       inkscape:transform-center-y="0.12830542" />
    <path
       transform="translate(256.34326,-276.48534)"
       sodipodi:type="star"
       style="fill:#ececec"
       id="path3010-06"
       sodipodi:sides="5"
       sodipodi:cx="290"
       sodipodi:cy="326.64789"
       sodipodi:r1="10.301575"
       sodipodi:r2="5.1507874"
       sodipodi:arg1="0.5880026"
       sodipodi:arg2="1.2163211"
       inkscape:flatsided="false"
       inkscape:rounded="0"
       inkscape:randomized="0"
       d="m 298.57143,332.36217 -6.7836,-0.88373 -4.57372,5.08717 -1.25577,-6.72467 -6.25154,-2.77785 6.00749,-3.27234 0.71005,-6.80398 4.96861,4.70226 6.69038,-1.42724 -2.93673,6.1785 z"
       inkscape:transform-center-x="0.86088784"
       inkscape:transform-center-y="0.12830542" />
    <path
       transform="translate(1302.8613,-159.30764)"
       sodipodi:type="star"
       style="fill:#ececec"
       id="path3010-269"
       sodipodi:sides="5"
       sodipodi:cx="290"
       sodipodi:cy="326.64789"
       sodipodi:r1="10.301575"
       sodipodi:r2="5.1507874"
       sodipodi:arg1="0.5880026"
       sodipodi:arg2="1.2163211"
       inkscape:flatsided="false"
       inkscape:rounded="0"
       inkscape:randomized="0"
       d="m 298.57143,332.36217 -6.7836,-0.88373 -4.57372,5.08717 -1.25577,-6.72467 -6.25154,-2.77785 6.00749,-3.27234 0.71005,-6.80398 4.96861,4.70226 6.69038,-1.42724 -2.93673,6.1785 z"
       inkscape:transform-center-x="0.86088784"
       inkscape:transform-center-y="0.12830542" />
    <path
       transform="translate(1834.2015,-177.49039)"
       sodipodi:type="star"
       style="fill:#ececec"
       id="path3010-1"
       sodipodi:sides="5"
       sodipodi:cx="290"
       sodipodi:cy="326.64789"
       sodipodi:r1="10.301575"
       sodipodi:r2="5.1507874"
       sodipodi:arg1="0.5880026"
       sodipodi:arg2="1.2163211"
       inkscape:flatsided="false"
       inkscape:rounded="0"
       inkscape:randomized="0"
       d="m 298.57143,332.36217 -6.7836,-0.88373 -4.57372,5.08717 -1.25577,-6.72467 -6.25154,-2.77785 6.00749,-3.27234 0.71005,-6.80398 4.96861,4.70226 6.69038,-1.42724 -2.93673,6.1785 z"
       inkscape:transform-center-x="0.86088784"
       inkscape:transform-center-y="0.12830542" />
    <path
       transform="translate(1807.9376,121.51477)"
       sodipodi:type="star"
       style="fill:#ececec"
       id="path3010-43"
       sodipodi:sides="5"
       sodipodi:cx="290"
       sodipodi:cy="326.64789"
       sodipodi:r1="10.301575"
       sodipodi:r2="5.1507874"
       sodipodi:arg1="0.5880026"
       sodipodi:arg2="1.2163211"
       inkscape:flatsided="false"
       inkscape:rounded="0"
       inkscape:randomized="0"
       d="m 298.57143,332.36217 -6.7836,-0.88373 -4.57372,5.08717 -1.25577,-6.72467 -6.25154,-2.77785 6.00749,-3.27234 0.71005,-6.80398 4.96861,4.70226 6.69038,-1.42724 -2.93673,6.1785 z"
       inkscape:transform-center-x="0.86088784"
       inkscape:transform-center-y="0.12830542" />
    <path
       transform="translate(1561.4603,-193.65283)"
       sodipodi:type="star"
       style="fill:#ececec"
       id="path3010-57"
       sodipodi:sides="5"
       sodipodi:cx="290"
       sodipodi:cy="326.64789"
       sodipodi:r1="10.301575"
       sodipodi:r2="5.1507874"
       sodipodi:arg1="0.5880026"
       sodipodi:arg2="1.2163211"
       inkscape:flatsided="false"
       inkscape:rounded="0"
       inkscape:randomized="0"
       d="m 298.57143,332.36217 -6.7836,-0.88373 -4.57372,5.08717 -1.25577,-6.72467 -6.25154,-2.77785 6.00749,-3.27234 0.71005,-6.80398 4.96861,4.70226 6.69038,-1.42724 -2.93673,6.1785 z"
       inkscape:transform-center-x="0.86088784"
       inkscape:transform-center-y="0.12830542" />
    <path
       transform="translate(1367.5111,36.661953)"
       sodipodi:type="star"
       style="fill:#ececec"
       id="path3010-02"
       sodipodi:sides="5"
       sodipodi:cx="290"
       sodipodi:cy="326.64789"
       sodipodi:r1="10.301575"
       sodipodi:r2="5.1507874"
       sodipodi:arg1="0.5880026"
       sodipodi:arg2="1.2163211"
       inkscape:flatsided="false"
       inkscape:rounded="0"
       inkscape:randomized="0"
       d="m 298.57143,332.36217 -6.7836,-0.88373 -4.57372,5.08717 -1.25577,-6.72467 -6.25154,-2.77785 6.00749,-3.27234 0.71005,-6.80398 4.96861,4.70226 6.69038,-1.42724 -2.93673,6.1785 z"
       inkscape:transform-center-x="0.86088784"
       inkscape:transform-center-y="0.12830542" />
    <path
       transform="translate(925.06425,-207.79496)"
       sodipodi:type="star"
       style="fill:#ececec"
       id="path3010-19"
       sodipodi:sides="5"
       sodipodi:cx="290"
       sodipodi:cy="326.64789"
       sodipodi:r1="10.301575"
       sodipodi:r2="5.1507874"
       sodipodi:arg1="0.5880026"
       sodipodi:arg2="1.2163211"
       inkscape:flatsided="false"
       inkscape:rounded="0"
       inkscape:randomized="0"
       d="m 298.57143,332.36217 -6.7836,-0.88373 -4.57372,5.08717 -1.25577,-6.72467 -6.25154,-2.77785 6.00749,-3.27234 0.71005,-6.80398 4.96861,4.70226 6.69038,-1.42724 -2.93673,6.1785 z"
       inkscape:transform-center-x="0.86088784"
       inkscape:transform-center-y="0.12830542" />
    <path
       transform="translate(484.63774,-211.83557)"
       sodipodi:type="star"
       style="fill:#ececec"
       id="path3010-193"
       sodipodi:sides="5"
       sodipodi:cx="290"
       sodipodi:cy="326.64789"
       sodipodi:r1="10.301575"
       sodipodi:r2="5.1507874"
       sodipodi:arg1="0.5880026"
       sodipodi:arg2="1.2163211"
       inkscape:flatsided="false"
       inkscape:rounded="0"
       inkscape:randomized="0"
       d="m 298.57143,332.36217 -6.7836,-0.88373 -4.57372,5.08717 -1.25577,-6.72467 -6.25154,-2.77785 6.00749,-3.27234 0.71005,-6.80398 4.96861,4.70226 6.69038,-1.42724 -2.93673,6.1785 z"
       inkscape:transform-center-x="0.86088784"
       inkscape:transform-center-y="0.12830542" />
    <path
       transform="translate(1084.9649,-22.965057)"
       sodipodi:type="star"
       style="fill:#ececec"
       id="path3010-89"
       sodipodi:sides="5"
       sodipodi:cx="290"
       sodipodi:cy="326.64789"
       sodipodi:r1="10.301575"
       sodipodi:r2="5.1507874"
       sodipodi:arg1="0.5880026"
       sodipodi:arg2="1.2163211"
       inkscape:flatsided="false"
       inkscape:rounded="0"
       inkscape:randomized="0"
       d="m 298.57143,332.36217 -6.7836,-0.88373 -4.57372,5.08717 -1.25577,-6.72467 -6.25154,-2.77785 6.00749,-3.27234 0.71005,-6.80398 4.96861,4.70226 6.69038,-1.42724 -2.93673,6.1785 z"
       inkscape:transform-center-x="0.86088784"
       inkscape:transform-center-y="0.12830542" />
    <path
       transform="translate(2074.6789,7.6360429)"
       sodipodi:type="star"
       style="fill:#ececec"
       id="path3010-6-8"
       sodipodi:sides="5"
       sodipodi:cx="290"
       sodipodi:cy="326.64789"
       sodipodi:r1="10.301575"
       sodipodi:r2="5.1507874"
       sodipodi:arg1="0.5880026"
       sodipodi:arg2="1.2163211"
       inkscape:flatsided="false"
       inkscape:rounded="0"
       inkscape:randomized="0"
       d="m 298.57143,332.36217 -6.7836,-0.88373 -4.57372,5.08717 -1.25577,-6.72467 -6.25154,-2.77785 6.00749,-3.27234 0.71005,-6.80398 4.96861,4.70226 6.69038,-1.42724 -2.93673,6.1785 z"
       inkscape:transform-center-x="0.86088784"
       inkscape:transform-center-y="0.12830542" />
    <path
       transform="translate(1420.1001,199.56504)"
       sodipodi:type="star"
       style="fill:#ececec"
       id="path3010-8-9"
       sodipodi:sides="5"
       sodipodi:cx="290"
       sodipodi:cy="326.64789"
       sodipodi:r1="10.301575"
       sodipodi:r2="5.1507874"
       sodipodi:arg1="0.5880026"
       sodipodi:arg2="1.2163211"
       inkscape:flatsided="false"
       inkscape:rounded="0"
       inkscape:randomized="0"
       d="m 298.57143,332.36217 -6.7836,-0.88373 -4.57372,5.08717 -1.25577,-6.72467 -6.25154,-2.77785 6.00749,-3.27234 0.71005,-6.80398 4.96861,4.70226 6.69038,-1.42724 -2.93673,6.1785 z"
       inkscape:transform-center-x="0.86088784"
       inkscape:transform-center-y="0.12830542" />
    <path
       transform="translate(1801.9377,72.285743)"
       sodipodi:type="star"
       style="fill:#ececec"
       id="path3010-2-6"
       sodipodi:sides="5"
       sodipodi:cx="290"
       sodipodi:cy="326.64789"
       sodipodi:r1="10.301575"
       sodipodi:r2="5.1507874"
       sodipodi:arg1="0.5880026"
       sodipodi:arg2="1.2163211"
       inkscape:flatsided="false"
       inkscape:rounded="0"
       inkscape:randomized="0"
       d="m 298.57143,332.36217 -6.7836,-0.88373 -4.57372,5.08717 -1.25577,-6.72467 -6.25154,-2.77785 6.00749,-3.27234 0.71005,-6.80398 4.96861,4.70226 6.69038,-1.42724 -2.93673,6.1785 z"
       inkscape:transform-center-x="0.86088784"
       inkscape:transform-center-y="0.12830542" />
    <path
       transform="translate(2569.6537,213.70714)"
       sodipodi:type="star"
       style="fill:#ececec"
       id="path3010-5-9"
       sodipodi:sides="5"
       sodipodi:cx="290"
       sodipodi:cy="326.64789"
       sodipodi:r1="10.301575"
       sodipodi:r2="5.1507874"
       sodipodi:arg1="0.5880026"
       sodipodi:arg2="1.2163211"
       inkscape:flatsided="false"
       inkscape:rounded="0"
       inkscape:randomized="0"
       d="m 298.57143,332.36217 -6.7836,-0.88373 -4.57372,5.08717 -1.25577,-6.72467 -6.25154,-2.77785 6.00749,-3.27234 0.71005,-6.80398 4.96861,4.70226 6.69038,-1.42724 -2.93673,6.1785 z"
       inkscape:transform-center-x="0.86088784"
       inkscape:transform-center-y="0.12830542" />
    <path
       transform="translate(2575.7146,231.88984)"
       sodipodi:type="star"
       style="fill:#ececec"
       id="path3010-7-1"
       sodipodi:sides="5"
       sodipodi:cx="290"
       sodipodi:cy="326.64789"
       sodipodi:r1="10.301575"
       sodipodi:r2="5.1507874"
       sodipodi:arg1="0.5880026"
       sodipodi:arg2="1.2163211"
       inkscape:flatsided="false"
       inkscape:rounded="0"
       inkscape:randomized="0"
       d="m 298.57143,332.36217 -6.7836,-0.88373 -4.57372,5.08717 -1.25577,-6.72467 -6.25154,-2.77785 6.00749,-3.27234 0.71005,-6.80398 4.96861,4.70226 6.69038,-1.42724 -2.93673,6.1785 z"
       inkscape:transform-center-x="0.86088784"
       inkscape:transform-center-y="0.12830542" />
    <path
       transform="translate(2719.1562,-42.871597)"
       sodipodi:type="star"
       style="fill:#ececec"
       id="path3010-51-2"
       sodipodi:sides="5"
       sodipodi:cx="290"
       sodipodi:cy="326.64789"
       sodipodi:r1="10.301575"
       sodipodi:r2="5.1507874"
       sodipodi:arg1="0.5880026"
       sodipodi:arg2="1.2163211"
       inkscape:flatsided="false"
       inkscape:rounded="0"
       inkscape:randomized="0"
       d="m 298.57143,332.36217 -6.7836,-0.88373 -4.57372,5.08717 -1.25577,-6.72467 -6.25154,-2.77785 6.00749,-3.27234 0.71005,-6.80398 4.96861,4.70226 6.69038,-1.42724 -2.93673,6.1785 z"
       inkscape:transform-center-x="0.86088784"
       inkscape:transform-center-y="0.12830542" />
    <path
       transform="translate(2252.4658,17.737543)"
       sodipodi:type="star"
       style="fill:#ececec"
       id="path3010-71-2"
       sodipodi:sides="5"
       sodipodi:cx="290"
       sodipodi:cy="326.64789"
       sodipodi:r1="10.301575"
       sodipodi:r2="5.1507874"
       sodipodi:arg1="0.5880026"
       sodipodi:arg2="1.2163211"
       inkscape:flatsided="false"
       inkscape:rounded="0"
       inkscape:randomized="0"
       d="m 298.57143,332.36217 -6.7836,-0.88373 -4.57372,5.08717 -1.25577,-6.72467 -6.25154,-2.77785 6.00749,-3.27234 0.71005,-6.80398 4.96861,4.70226 6.69038,-1.42724 -2.93673,6.1785 z"
       inkscape:transform-center-x="0.86088784"
       inkscape:transform-center-y="0.12830542" />
    <path
       transform="translate(1787.7956,-133.78533)"
       sodipodi:type="star"
       style="fill:#ececec"
       id="path3010-0-1"
       sodipodi:sides="5"
       sodipodi:cx="290"
       sodipodi:cy="326.64789"
       sodipodi:r1="10.301575"
       sodipodi:r2="5.1507874"
       sodipodi:arg1="0.5880026"
       sodipodi:arg2="1.2163211"
       inkscape:flatsided="false"
       inkscape:rounded="0"
       inkscape:randomized="0"
       d="m 298.57143,332.36217 -6.7836,-0.88373 -4.57372,5.08717 -1.25577,-6.72467 -6.25154,-2.77785 6.00749,-3.27234 0.71005,-6.80398 4.96861,4.70226 6.69038,-1.42724 -2.93673,6.1785 z"
       inkscape:transform-center-x="0.86088784"
       inkscape:transform-center-y="0.12830542" />
    <path
       transform="translate(1209.9883,21.778143)"
       sodipodi:type="star"
       style="fill:#ececec"
       id="path3010-4-0"
       sodipodi:sides="5"
       sodipodi:cx="290"
       sodipodi:cy="326.64789"
       sodipodi:r1="10.301575"
       sodipodi:r2="5.1507874"
       sodipodi:arg1="0.5880026"
       sodipodi:arg2="1.2163211"
       inkscape:flatsided="false"
       inkscape:rounded="0"
       inkscape:randomized="0"
       d="m 298.57143,332.36217 -6.7836,-0.88373 -4.57372,5.08717 -1.25577,-6.72467 -6.25154,-2.77785 6.00749,-3.27234 0.71005,-6.80398 4.96861,4.70226 6.69038,-1.42724 -2.93673,6.1785 z"
       inkscape:transform-center-x="0.86088784"
       inkscape:transform-center-y="0.12830542" />
    <path
       transform="translate(1452.4249,88.448243)"
       sodipodi:type="star"
       style="fill:#ececec"
       id="path3010-00-5"
       sodipodi:sides="5"
       sodipodi:cx="290"
       sodipodi:cy="326.64789"
       sodipodi:r1="10.301575"
       sodipodi:r2="5.1507874"
       sodipodi:arg1="0.5880026"
       sodipodi:arg2="1.2163211"
       inkscape:flatsided="false"
       inkscape:rounded="0"
       inkscape:randomized="0"
       d="m 298.57143,332.36217 -6.7836,-0.88373 -4.57372,5.08717 -1.25577,-6.72467 -6.25154,-2.77785 6.00749,-3.27234 0.71005,-6.80398 4.96861,4.70226 6.69038,-1.42724 -2.93673,6.1785 z"
       inkscape:transform-center-x="0.86088784"
       inkscape:transform-center-y="0.12830542" />
    <path
       transform="translate(1454.4452,-34.790357)"
       sodipodi:type="star"
       style="fill:#ececec"
       id="path3010-81-6"
       sodipodi:sides="5"
       sodipodi:cx="290"
       sodipodi:cy="326.64789"
       sodipodi:r1="10.301575"
       sodipodi:r2="5.1507874"
       sodipodi:arg1="0.5880026"
       sodipodi:arg2="1.2163211"
       inkscape:flatsided="false"
       inkscape:rounded="0"
       inkscape:randomized="0"
       d="m 298.57143,332.36217 -6.7836,-0.88373 -4.57372,5.08717 -1.25577,-6.72467 -6.25154,-2.77785 6.00749,-3.27234 0.71005,-6.80398 4.96861,4.70226 6.69038,-1.42724 -2.93673,6.1785 z"
       inkscape:transform-center-x="0.86088784"
       inkscape:transform-center-y="0.12830542" />
    <path
       transform="translate(896.84104,-255.00363)"
       sodipodi:type="star"
       style="fill:#ececec"
       id="path3010-26-9"
       sodipodi:sides="5"
       sodipodi:cx="290"
       sodipodi:cy="326.64789"
       sodipodi:r1="10.301575"
       sodipodi:r2="5.1507874"
       sodipodi:arg1="0.5880026"
       sodipodi:arg2="1.2163211"
       inkscape:flatsided="false"
       inkscape:rounded="0"
       inkscape:randomized="0"
       d="m 298.57143,332.36217 -6.7836,-0.88373 -4.57372,5.08717 -1.25577,-6.72467 -6.25154,-2.77785 6.00749,-3.27234 0.71005,-6.80398 4.96861,4.70226 6.69038,-1.42724 -2.93673,6.1785 z"
       inkscape:transform-center-x="0.86088784"
       inkscape:transform-center-y="0.12830542" />
    <path
       transform="translate(2387.8262,-182.27265)"
       sodipodi:type="star"
       style="fill:#ececec"
       id="path3010-269-7"
       sodipodi:sides="5"
       sodipodi:cx="290"
       sodipodi:cy="326.64789"
       sodipodi:r1="10.301575"
       sodipodi:r2="5.1507874"
       sodipodi:arg1="0.5880026"
       sodipodi:arg2="1.2163211"
       inkscape:flatsided="false"
       inkscape:rounded="0"
       inkscape:randomized="0"
       d="m 298.57143,332.36217 -6.7836,-0.88373 -4.57372,5.08717 -1.25577,-6.72467 -6.25154,-2.77785 6.00749,-3.27234 0.71005,-6.80398 4.96861,4.70226 6.69038,-1.42724 -2.93673,6.1785 z"
       inkscape:transform-center-x="0.86088784"
       inkscape:transform-center-y="0.12830542" />
    <path
       transform="translate(2646.4252,-216.61784)"
       sodipodi:type="star"
       style="fill:#ececec"
       id="path3010-57-3"
       sodipodi:sides="5"
       sodipodi:cx="290"
       sodipodi:cy="326.64789"
       sodipodi:r1="10.301575"
       sodipodi:r2="5.1507874"
       sodipodi:arg1="0.5880026"
       sodipodi:arg2="1.2163211"
       inkscape:flatsided="false"
       inkscape:rounded="0"
       inkscape:randomized="0"
       d="m 298.57143,332.36217 -6.7836,-0.88373 -4.57372,5.08717 -1.25577,-6.72467 -6.25154,-2.77785 6.00749,-3.27234 0.71005,-6.80398 4.96861,4.70226 6.69038,-1.42724 -2.93673,6.1785 z"
       inkscape:transform-center-x="0.86088784"
       inkscape:transform-center-y="0.12830542" />
    <path
       transform="translate(2452.476,13.696943)"
       sodipodi:type="star"
       style="fill:#ececec"
       id="path3010-02-3"
       sodipodi:sides="5"
       sodipodi:cx="290"
       sodipodi:cy="326.64789"
       sodipodi:r1="10.301575"
       sodipodi:r2="5.1507874"
       sodipodi:arg1="0.5880026"
       sodipodi:arg2="1.2163211"
       inkscape:flatsided="false"
       inkscape:rounded="0"
       inkscape:randomized="0"
       d="m 298.57143,332.36217 -6.7836,-0.88373 -4.57372,5.08717 -1.25577,-6.72467 -6.25154,-2.77785 6.00749,-3.27234 0.71005,-6.80398 4.96861,4.70226 6.69038,-1.42724 -2.93673,6.1785 z"
       inkscape:transform-center-x="0.86088784"
       inkscape:transform-center-y="0.12830542" />
    <path
       transform="translate(2010.0291,-230.75997)"
       sodipodi:type="star"
       style="fill:#ececec"
       id="path3010-19-4"
       sodipodi:sides="5"
       sodipodi:cx="290"
       sodipodi:cy="326.64789"
       sodipodi:r1="10.301575"
       sodipodi:r2="5.1507874"
       sodipodi:arg1="0.5880026"
       sodipodi:arg2="1.2163211"
       inkscape:flatsided="false"
       inkscape:rounded="0"
       inkscape:randomized="0"
       d="m 298.57143,332.36217 -6.7836,-0.88373 -4.57372,5.08717 -1.25577,-6.72467 -6.25154,-2.77785 6.00749,-3.27234 0.71005,-6.80398 4.96861,4.70226 6.69038,-1.42724 -2.93673,6.1785 z"
       inkscape:transform-center-x="0.86088784"
       inkscape:transform-center-y="0.12830542" />
    <path
       transform="translate(1569.6026,-234.80058)"
       sodipodi:type="star"
       style="fill:#ececec"
       id="path3010-193-0"
       sodipodi:sides="5"
       sodipodi:cx="290"
       sodipodi:cy="326.64789"
       sodipodi:r1="10.301575"
       sodipodi:r2="5.1507874"
       sodipodi:arg1="0.5880026"
       sodipodi:arg2="1.2163211"
       inkscape:flatsided="false"
       inkscape:rounded="0"
       inkscape:randomized="0"
       d="m 298.57143,332.36217 -6.7836,-0.88373 -4.57372,5.08717 -1.25577,-6.72467 -6.25154,-2.77785 6.00749,-3.27234 0.71005,-6.80398 4.96861,4.70226 6.69038,-1.42724 -2.93673,6.1785 z"
       inkscape:transform-center-x="0.86088784"
       inkscape:transform-center-y="0.12830542" />
    <path
       transform="translate(2648.2696,-215.00362)"
       sodipodi:type="star"
       style="fill:#ececec"
       id="path3010-26-6"
       sodipodi:sides="5"
       sodipodi:cx="290"
       sodipodi:cy="326.64789"
       sodipodi:r1="10.301575"
       sodipodi:r2="5.1507874"
       sodipodi:arg1="0.5880026"
       sodipodi:arg2="1.2163211"
       inkscape:flatsided="false"
       inkscape:rounded="0"
       inkscape:randomized="0"
       d="m 298.57143,332.36217 -6.7836,-0.88373 -4.57372,5.08717 -1.25577,-6.72467 -6.25154,-2.77785 6.00749,-3.27234 0.71005,-6.80398 4.96861,4.70226 6.69038,-1.42724 -2.93673,6.1785 z"
       inkscape:transform-center-x="0.86088784"
       inkscape:transform-center-y="0.12830542" />
    <path
       transform="translate(2613.9839,-117.86077)"
       sodipodi:type="star"
       style="fill:#ececec"
       id="path3010-26-0"
       sodipodi:sides="5"
       sodipodi:cx="290"
       sodipodi:cy="326.64789"
       sodipodi:r1="10.301575"
       sodipodi:r2="5.1507874"
       sodipodi:arg1="0.5880026"
       sodipodi:arg2="1.2163211"
       inkscape:flatsided="false"
       inkscape:rounded="0"
       inkscape:randomized="0"
       d="m 298.57143,332.36217 -6.7836,-0.88373 -4.57372,5.08717 -1.25577,-6.72467 -6.25154,-2.77785 6.00749,-3.27234 0.71005,-6.80398 4.96861,4.70226 6.69038,-1.42724 -2.93673,6.1785 z"
       inkscape:transform-center-x="0.86088784"
       inkscape:transform-center-y="0.12830542" />
  </g>
</svg>
